<svg width="394" height="85" viewBox="0 0 394 85" fill="none" xmlns="http://www.w3.org/2000/svg">
<g clip-path="url(#clip0)">
<circle cx="164.148" cy="42.6164" r="10.5591" stroke="white" stroke-width="0.728216"/>
<rect x="157.455" y="42.6163" width="9.46681" height="9.46681" transform="rotate(-45 157.455 42.6163)" stroke="white" stroke-width="0.728216"/>
<path d="M160.544 39.0122L163.118 41.5868" stroke="white" stroke-width="0.728216"/>
<path d="M164.148 42.6163L167.752 46.2208" stroke="white" stroke-width="0.728216"/>
<path d="M161.573 45.1907L167.753 39.0116" stroke="white" stroke-width="0.728216"/>
</g>
<path d="M196.707 38.3841V46.5162H194.825V43.1821H191.131V46.5162H189.249V38.3841H191.131V41.5905H194.825V38.3841H196.707ZM209.795 44.7736H206.02L205.299 46.5162H203.371L206.996 38.3841H208.854L212.491 46.5162H210.516L209.795 44.7736ZM209.203 43.3447L207.913 40.2313L206.624 43.3447H209.203ZM221.815 46.6556C221.172 46.6556 220.549 46.5704 219.945 46.4001C219.348 46.2219 218.868 45.9935 218.504 45.7146L219.143 44.2973C219.491 44.5529 219.906 44.7581 220.386 44.913C220.866 45.0679 221.346 45.1454 221.827 45.1454C222.361 45.1454 222.756 45.0679 223.012 44.913C223.267 44.7504 223.395 44.5374 223.395 44.2741C223.395 44.0805 223.317 43.9217 223.163 43.7978C223.015 43.6661 222.822 43.5616 222.582 43.4841C222.349 43.4067 222.032 43.3215 221.629 43.2285C221.009 43.0814 220.502 42.9342 220.107 42.7871C219.712 42.6399 219.371 42.4037 219.085 42.0784C218.806 41.7531 218.667 41.3194 218.667 40.7773C218.667 40.3048 218.794 39.8789 219.05 39.4994C219.306 39.1121 219.689 38.8062 220.2 38.5816C220.719 38.357 221.35 38.2447 222.094 38.2447C222.613 38.2447 223.12 38.3066 223.616 38.4306C224.111 38.5545 224.545 38.7326 224.917 38.965L224.336 40.3939C223.585 39.9679 222.833 39.7549 222.082 39.7549C221.555 39.7549 221.164 39.8401 220.909 40.0105C220.661 40.1809 220.537 40.4055 220.537 40.6843C220.537 40.9631 220.68 41.1723 220.967 41.3117C221.261 41.4433 221.707 41.575 222.303 41.7067C222.922 41.8538 223.43 42.001 223.825 42.1481C224.22 42.2953 224.557 42.5276 224.835 42.8452C225.122 43.1627 225.265 43.5925 225.265 44.1347C225.265 44.5994 225.134 45.0253 224.87 45.4126C224.615 45.7921 224.227 46.0941 223.709 46.3187C223.19 46.5433 222.558 46.6556 221.815 46.6556ZM239.818 38.3841V46.5162H237.936V43.1821H234.242V46.5162H232.36V38.3841H234.242V41.5905H237.936V38.3841H239.818Z" fill="white"/>
<defs>
<clipPath id="clip0">
<rect width="21.8465" height="21.8465" fill="white" transform="translate(153.225 31.6931)"/>
</clipPath>
</defs>
</svg>
