<svg width="394" height="85" viewBox="0 0 394 85" fill="none" xmlns="http://www.w3.org/2000/svg">
<g clip-path="url(#clip0)">
<circle cx="163.875" cy="42.6719" r="10.5591" stroke="black" stroke-width="0.728216"/>
<rect x="157.182" y="42.6719" width="9.46681" height="9.46681" transform="rotate(-45 157.182 42.6719)" stroke="black" stroke-width="0.728216"/>
<path d="M160.271 39.0677L162.845 41.6424" stroke="black" stroke-width="0.728216"/>
<path d="M163.875 42.6719L167.479 46.2764" stroke="black" stroke-width="0.728216"/>
<path d="M161.301 45.2462L167.48 39.0671" stroke="black" stroke-width="0.728216"/>
</g>
<path d="M196.434 38.4396V46.5718H194.552V43.2376H190.858V46.5718H188.976V38.4396H190.858V41.646H194.552V38.4396H196.434ZM209.522 44.8292H205.747L205.026 46.5718H203.098L206.723 38.4396H208.581L212.218 46.5718H210.243L209.522 44.8292ZM208.93 43.4002L207.64 40.2868L206.351 43.4002H208.93ZM221.542 46.7112C220.899 46.7112 220.276 46.626 219.672 46.4556C219.075 46.2775 218.595 46.049 218.231 45.7702L218.87 44.3529C219.219 44.6084 219.633 44.8137 220.113 44.9686C220.593 45.1235 221.073 45.2009 221.554 45.2009C222.088 45.2009 222.483 45.1235 222.739 44.9686C222.994 44.8059 223.122 44.593 223.122 44.3296C223.122 44.136 223.045 43.9772 222.89 43.8533C222.742 43.7217 222.549 43.6171 222.309 43.5397C222.076 43.4622 221.759 43.377 221.356 43.2841C220.737 43.1369 220.229 42.9898 219.834 42.8426C219.439 42.6955 219.098 42.4592 218.812 42.134C218.533 41.8087 218.394 41.375 218.394 40.8328C218.394 40.3604 218.521 39.9344 218.777 39.5549C219.033 39.1677 219.416 38.8617 219.927 38.6371C220.446 38.4125 221.077 38.3002 221.821 38.3002C222.34 38.3002 222.847 38.3622 223.343 38.4861C223.838 38.61 224.272 38.7882 224.644 39.0205L224.063 40.4494C223.312 40.0235 222.56 39.8105 221.809 39.8105C221.283 39.8105 220.891 39.8957 220.636 40.0661C220.388 40.2365 220.264 40.4611 220.264 40.7399C220.264 41.0187 220.407 41.2278 220.694 41.3672C220.988 41.4989 221.434 41.6305 222.03 41.7622C222.65 41.9094 223.157 42.0565 223.552 42.2037C223.947 42.3508 224.284 42.5832 224.563 42.9007C224.849 43.2182 224.992 43.6481 224.992 44.1902C224.992 44.6549 224.861 45.0809 224.597 45.4681C224.342 45.8476 223.955 46.1497 223.436 46.3743C222.917 46.5989 222.286 46.7112 221.542 46.7112ZM239.545 38.4396V46.5718H237.663V43.2376H233.969V46.5718H232.087V38.4396H233.969V41.646H237.663V38.4396H239.545Z" fill="black"/>
<defs>
<clipPath id="clip0">
<rect width="21.8465" height="21.8465" fill="white" transform="translate(152.952 31.7487)"/>
</clipPath>
</defs>
</svg>
