<svg width="882" height="27" viewBox="0 0 882 27" fill="none" xmlns="http://www.w3.org/2000/svg">
<path d="M11.7732 1.02271C13.9855 1.02271 15.9004 1.39143 17.518 2.12885C19.1593 2.86628 20.4201 3.91294 21.3002 5.26885C22.1804 6.62476 22.6205 8.23044 22.6205 10.0859C22.6205 11.9176 22.1804 13.5233 21.3002 14.9029C20.4201 16.2589 19.1593 17.3055 17.518 18.043C15.9004 18.7566 13.9855 19.1134 11.7732 19.1134H6.74205V26H0.961592V1.02271H11.7732ZM11.4521 14.4034C13.1886 14.4034 14.5088 14.0347 15.4127 13.2973C16.3167 12.5361 16.7686 11.4656 16.7686 10.0859C16.7686 8.68242 16.3167 7.61196 15.4127 6.87454C14.5088 6.11332 13.1886 5.73272 11.4521 5.73272H6.74205V14.4034H11.4521ZM60.5023 26L55.6853 19.042H55.3998H50.3687V26H44.5882V1.02271H55.3998C57.6121 1.02271 59.527 1.39143 61.1446 2.12885C62.7859 2.86628 64.0467 3.91294 64.9269 5.26885C65.807 6.62476 66.2471 8.23044 66.2471 10.0859C66.2471 11.9414 65.7951 13.547 64.8912 14.9029C64.011 16.2351 62.7503 17.2579 61.1089 17.9716L66.7109 26H60.5023ZM60.3953 10.0859C60.3953 8.68242 59.9433 7.61196 59.0394 6.87454C58.1354 6.11332 56.8152 5.73272 55.0787 5.73272H50.3687V14.4391H55.0787C56.8152 14.4391 58.1354 14.0585 59.0394 13.2973C59.9433 12.5361 60.3953 11.4656 60.3953 10.0859ZM100.764 26.4282C98.1711 26.4282 95.828 25.8692 93.7346 24.7511C91.6651 23.6331 90.0356 22.0988 88.8462 20.1482C87.6806 18.1738 87.0978 15.9615 87.0978 13.5114C87.0978 11.0612 87.6806 8.86082 88.8462 6.91022C90.0356 4.93582 91.6651 3.38961 93.7346 2.27158C95.828 1.15355 98.1711 0.594533 100.764 0.594533C103.357 0.594533 105.688 1.15355 107.758 2.27158C109.827 3.38961 111.457 4.93582 112.646 6.91022C113.835 8.86082 114.43 11.0612 114.43 13.5114C114.43 15.9615 113.835 18.1738 112.646 20.1482C111.457 22.0988 109.827 23.6331 107.758 24.7511C105.688 25.8692 103.357 26.4282 100.764 26.4282ZM100.764 21.5041C102.239 21.5041 103.571 21.1711 104.76 20.505C105.95 19.8151 106.877 18.8636 107.544 17.6505C108.233 16.4373 108.578 15.0576 108.578 13.5114C108.578 11.9651 108.233 10.5854 107.544 9.37226C106.877 8.15908 105.95 7.21946 104.76 6.5534C103.571 5.86355 102.239 5.51863 100.764 5.51863C99.2891 5.51863 97.957 5.86355 96.7676 6.5534C95.5782 7.21946 94.6386 8.15908 93.9487 9.37226C93.2827 10.5854 92.9496 11.9651 92.9496 13.5114C92.9496 15.0576 93.2827 16.4373 93.9487 17.6505C94.6386 18.8636 95.5782 19.8151 96.7676 20.505C97.957 21.1711 99.2891 21.5041 100.764 21.5041ZM159.793 1.02271L148.981 26H143.272L132.496 1.02271H138.741L146.341 18.8636L154.048 1.02271H159.793ZM199.059 21.3614V26H179.719V1.02271H198.595V5.66135H185.464V11.085H197.061V15.5809H185.464V21.3614H199.059ZM244.407 1.02271V26H239.661L227.208 10.8352V26H221.499V1.02271H226.28L238.698 16.1875V1.02271H244.407ZM284.607 20.6477H273.01L270.798 26H264.874L276.007 1.02271H281.716L292.885 26H286.819L284.607 20.6477ZM282.787 16.2589L278.826 6.69613L274.865 16.2589H282.787ZM336.225 1.02271V26H331.479L319.026 10.8352V26H313.317V1.02271H318.098L330.516 16.1875V1.02271H336.225ZM371.929 26.4282C369.383 26.4282 367.076 25.8811 365.006 24.7868C362.961 23.6688 361.343 22.1345 360.154 20.1839C358.988 18.2095 358.405 15.9853 358.405 13.5114C358.405 11.0374 358.988 8.82514 360.154 6.87454C361.343 4.90014 362.961 3.36582 365.006 2.27158C367.076 1.15355 369.395 0.594533 371.964 0.594533C374.129 0.594533 376.08 0.975139 377.816 1.73635C379.576 2.49756 381.051 3.59181 382.241 5.01908L378.53 8.44454C376.841 6.49393 374.747 5.51863 372.25 5.51863C370.704 5.51863 369.324 5.86355 368.111 6.5534C366.897 7.21946 365.946 8.15908 365.256 9.37226C364.59 10.5854 364.257 11.9651 364.257 13.5114C364.257 15.0576 364.59 16.4373 365.256 17.6505C365.946 18.8636 366.897 19.8151 368.111 20.505C369.324 21.1711 370.704 21.5041 372.25 21.5041C374.747 21.5041 376.841 20.5169 378.53 18.5425L382.241 21.968C381.051 23.419 379.576 24.5252 377.816 25.2864C376.056 26.0476 374.093 26.4282 371.929 26.4282ZM423.325 21.3614V26H403.985V1.02271H422.861V5.66135H409.73V11.085H421.326V15.5809H409.73V21.3614H423.325ZM492.052 13.0118C493.479 13.4638 494.597 14.225 495.406 15.2954C496.214 16.3421 496.619 17.6386 496.619 19.1848C496.619 21.3733 495.762 23.0622 494.05 24.2516C492.361 25.4172 489.887 26 486.628 26H473.711V1.02271H485.914C488.959 1.02271 491.29 1.60552 492.908 2.77112C494.549 3.93673 495.37 5.51863 495.37 7.51681C495.37 8.72999 495.073 9.81234 494.478 10.7639C493.907 11.7154 493.098 12.4647 492.052 13.0118ZM479.456 5.3759V11.2634H485.201C486.628 11.2634 487.71 11.0136 488.448 10.5141C489.185 10.0145 489.554 9.27711 489.554 8.30181C489.554 7.32651 489.185 6.60098 488.448 6.12522C487.71 5.62567 486.628 5.3759 485.201 5.3759H479.456ZM486.2 21.6468C487.722 21.6468 488.864 21.397 489.625 20.8975C490.41 20.398 490.803 19.6248 490.803 18.5782C490.803 16.5086 489.268 15.4739 486.2 15.4739H479.456V21.6468H486.2ZM518.836 1.02271H524.617V21.29H537.141V26H518.836V1.02271ZM569.89 26.4282C567.297 26.4282 564.954 25.8692 562.86 24.7511C560.791 23.6331 559.161 22.0988 557.972 20.1482C556.806 18.1738 556.223 15.9615 556.223 13.5114C556.223 11.0612 556.806 8.86082 557.972 6.91022C559.161 4.93582 560.791 3.38961 562.86 2.27158C564.954 1.15355 567.297 0.594533 569.89 0.594533C572.482 0.594533 574.814 1.15355 576.883 2.27158C578.953 3.38961 580.582 4.93582 581.772 6.91022C582.961 8.86082 583.556 11.0612 583.556 13.5114C583.556 15.9615 582.961 18.1738 581.772 20.1482C580.582 22.0988 578.953 23.6331 576.883 24.7511C574.814 25.8692 572.482 26.4282 569.89 26.4282ZM569.89 21.5041C571.364 21.5041 572.696 21.1711 573.886 20.505C575.075 19.8151 576.003 18.8636 576.669 17.6505C577.359 16.4373 577.704 15.0576 577.704 13.5114C577.704 11.9651 577.359 10.5854 576.669 9.37226C576.003 8.15908 575.075 7.21946 573.886 6.5534C572.696 5.86355 571.364 5.51863 569.89 5.51863C568.415 5.51863 567.083 5.86355 565.893 6.5534C564.704 7.21946 563.764 8.15908 563.074 9.37226C562.408 10.5854 562.075 11.9651 562.075 13.5114C562.075 15.0576 562.408 16.4373 563.074 17.6505C563.764 18.8636 564.704 19.8151 565.893 20.505C567.083 21.1711 568.415 21.5041 569.89 21.5041ZM617.694 26.4282C615.149 26.4282 612.842 25.8811 610.772 24.7868C608.726 23.6688 607.109 22.1345 605.919 20.1839C604.754 18.2095 604.171 15.9853 604.171 13.5114C604.171 11.0374 604.754 8.82514 605.919 6.87454C607.109 4.90014 608.726 3.36582 610.772 2.27158C612.842 1.15355 615.161 0.594533 617.73 0.594533C619.895 0.594533 621.845 0.975139 623.582 1.73635C625.342 2.49756 626.817 3.59181 628.006 5.01908L624.295 8.44454C622.606 6.49393 620.513 5.51863 618.015 5.51863C616.469 5.51863 615.089 5.86355 613.876 6.5534C612.663 7.21946 611.712 8.15908 611.022 9.37226C610.356 10.5854 610.023 11.9651 610.023 13.5114C610.023 15.0576 610.356 16.4373 611.022 17.6505C611.712 18.8636 612.663 19.8151 613.876 20.505C615.089 21.1711 616.469 21.5041 618.015 21.5041C620.513 21.5041 622.606 20.5169 624.295 18.5425L628.006 21.968C626.817 23.419 625.342 24.5252 623.582 25.2864C621.821 26.0476 619.859 26.4282 617.694 26.4282ZM658.85 16.1875L655.495 19.6843V26H649.751V1.02271H655.495V12.6907L666.557 1.02271H672.98L662.632 12.1554L673.586 26H666.842L658.85 16.1875ZM705.052 26.4282C702.507 26.4282 700.199 25.8811 698.13 24.7868C696.084 23.6688 694.466 22.1345 693.277 20.1839C692.111 18.2095 691.529 15.9853 691.529 13.5114C691.529 11.0374 692.111 8.82514 693.277 6.87454C694.466 4.90014 696.084 3.36582 698.13 2.27158C700.199 1.15355 702.519 0.594533 705.088 0.594533C707.252 0.594533 709.203 0.975139 710.94 1.73635C712.7 2.49756 714.175 3.59181 715.364 5.01908L711.653 8.44454C709.964 6.49393 707.871 5.51863 705.373 5.51863C703.827 5.51863 702.447 5.86355 701.234 6.5534C700.021 7.21946 699.069 8.15908 698.38 9.37226C697.713 10.5854 697.38 11.9651 697.38 13.5114C697.38 15.0576 697.713 16.4373 698.38 17.6505C699.069 18.8636 700.021 19.8151 701.234 20.505C702.447 21.1711 703.827 21.5041 705.373 21.5041C707.871 21.5041 709.964 20.5169 711.653 18.5425L715.364 21.968C714.175 23.419 712.7 24.5252 710.94 25.2864C709.179 26.0476 707.217 26.4282 705.052 26.4282ZM760.016 1.02271V26H754.236V15.7593H742.889V26H737.109V1.02271H742.889V10.8709H754.236V1.02271H760.016ZM800.216 20.6477H788.619L786.407 26H780.484L791.617 1.02271H797.326L808.494 26H802.428L800.216 20.6477ZM798.396 16.2589L794.436 6.69613L790.475 16.2589H798.396ZM828.926 1.02271H834.707V26H828.926V1.02271ZM881.383 1.02271V26H876.638L864.185 10.8352V26H858.476V1.02271H863.257L875.674 16.1875V1.02271H881.383Z" fill="#131721"/>
</svg>
