<svg width="356" height="23" viewBox="0 0 356 23" fill="none" xmlns="http://www.w3.org/2000/svg">
<path d="M9.2984 1.22924C11.1621 1.22924 12.7753 1.53985 14.1379 2.16108C15.5207 2.78231 16.5828 3.66404 17.3242 4.8063C18.0657 5.94855 18.4364 7.30122 18.4364 8.8643C18.4364 10.4073 18.0657 11.76 17.3242 12.9223C16.5828 14.0646 15.5207 14.9463 14.1379 15.5675C12.7753 16.1687 11.1621 16.4693 9.2984 16.4693H5.06004V22.2707H0.19043V1.22924H9.2984ZM9.02786 12.5015C10.4907 12.5015 11.6029 12.1909 12.3644 11.5696C13.1259 10.9284 13.5067 10.0266 13.5067 8.8643C13.5067 7.68197 13.1259 6.78019 12.3644 6.15897C11.6029 5.5177 10.4907 5.19707 9.02786 5.19707H5.06004V12.5015H9.02786Z" fill="black"/>
<path d="M50.3491 22.2707L46.2911 16.4092H46.0506H41.8122V22.2707H36.9426V1.22924H46.0506C47.9143 1.22924 49.5274 1.53985 50.8901 2.16108C52.2729 2.78231 53.335 3.66404 54.0764 4.8063C54.8179 5.94855 55.1886 7.30122 55.1886 8.8643C55.1886 10.4274 54.8079 11.7801 54.0464 12.9223C53.3049 14.0445 52.2428 14.9062 50.8601 15.5074L55.5794 22.2707H50.3491ZM50.2589 8.8643C50.2589 7.68197 49.8781 6.78019 49.1166 6.15897C48.3551 5.5177 47.2429 5.19707 45.7801 5.19707H41.8122V12.5315H45.7801C47.2429 12.5315 48.3551 12.2109 49.1166 11.5696C49.8781 10.9284 50.2589 10.0266 50.2589 8.8643Z" fill="black"/>
<path d="M84.2665 22.6315C82.0822 22.6315 80.1083 22.1605 78.3448 21.2187C76.6014 20.2768 75.2287 18.9843 74.2267 17.341C73.2448 15.6777 72.7538 13.8141 72.7538 11.75C72.7538 9.68592 73.2448 7.83227 74.2267 6.18902C75.2287 4.52574 76.6014 3.22317 78.3448 2.28132C80.1083 1.33946 82.0822 0.86853 84.2665 0.86853C86.4508 0.86853 88.4147 1.33946 90.1581 2.28132C91.9016 3.22317 93.2743 4.52574 94.2763 6.18902C95.2782 7.83227 95.7792 9.68592 95.7792 11.75C95.7792 13.8141 95.2782 15.6777 94.2763 17.341C93.2743 18.9843 91.9016 20.2768 90.1581 21.2187C88.4147 22.1605 86.4508 22.6315 84.2665 22.6315ZM84.2665 18.4833C85.509 18.4833 86.6312 18.2027 87.6332 17.6416C88.6351 17.0605 89.4167 16.2589 89.9778 15.2369C90.5589 14.2149 90.8495 13.0526 90.8495 11.75C90.8495 10.4474 90.5589 9.28513 89.9778 8.26312C89.4167 7.2411 88.6351 6.44954 87.6332 5.88843C86.6312 5.30729 85.509 5.01671 84.2665 5.01671C83.0241 5.01671 81.9019 5.30729 80.8999 5.88843C79.8979 6.44954 79.1063 7.2411 78.5252 8.26312C77.9641 9.28513 77.6835 10.4474 77.6835 11.75C77.6835 13.0526 77.9641 14.2149 78.5252 15.2369C79.1063 16.2589 79.8979 17.0605 80.8999 17.6416C81.9019 18.2027 83.0241 18.4833 84.2665 18.4833Z" fill="black"/>
<path d="M133.994 1.22924L124.886 22.2707H120.077L110.999 1.22924H116.259L122.662 16.2589L129.154 1.22924H133.994Z" fill="black"/>
<path d="M167.073 18.363V22.2707H150.78V1.22924H166.682V5.13695H155.62V9.70596H165.389V13.4934H155.62V18.363H167.073Z" fill="black"/>
<path d="M205.275 1.22924V22.2707H201.277L190.786 9.49555V22.2707H185.977V1.22924H190.005L200.465 14.0044V1.22924H205.275Z" fill="black"/>
<path d="M239.14 17.7619H229.371L227.507 22.2707H222.517L231.896 1.22924H236.705L246.114 22.2707H241.004L239.14 17.7619ZM237.607 14.0646L234.271 6.00867L230.934 14.0646H237.607Z" fill="black"/>
<path d="M282.625 1.22924V22.2707H278.627L268.136 9.49555V22.2707H263.327V1.22924H267.355L277.815 14.0044V1.22924H282.625Z" fill="black"/>
<path d="M312.703 22.6315C310.558 22.6315 308.615 22.1706 306.871 21.2487C305.148 20.3069 303.785 19.0143 302.783 17.3711C301.801 15.7078 301.31 13.8341 301.31 11.75C301.31 9.66588 301.801 7.80221 302.783 6.15897C303.785 4.49569 305.148 3.20314 306.871 2.28132C308.615 1.33946 310.568 0.86853 312.733 0.86853C314.556 0.86853 316.2 1.18916 317.662 1.83043C319.145 2.47169 320.388 3.39351 321.39 4.59588L318.264 7.48158C316.841 5.83833 315.077 5.01671 312.973 5.01671C311.671 5.01671 310.508 5.30729 309.486 5.88843C308.464 6.44954 307.663 7.2411 307.082 8.26312C306.52 9.28513 306.24 10.4474 306.24 11.75C306.24 13.0526 306.52 14.2149 307.082 15.2369C307.663 16.2589 308.464 17.0605 309.486 17.6416C310.508 18.2027 311.671 18.4833 312.973 18.4833C315.077 18.4833 316.841 17.6516 318.264 15.9884L321.39 18.8741C320.388 20.0965 319.145 21.0283 317.662 21.6696C316.18 22.3108 314.526 22.6315 312.703 22.6315Z" fill="black"/>
<path d="M356 18.363V22.2707H339.708V1.22924H355.609V5.13695H344.547V9.70596H354.317V13.4934H344.547V18.363H356Z" fill="black"/>
</svg>
